<svg xmlns="http://www.w3.org/2000/svg" width="46.694" height="44.744" viewBox="0 0 46.694 44.744">
  <g id="support" transform="translate(0 -8.826)">
    <g id="Group_81" data-name="Group 81" transform="translate(0 8.826)">
      <path id="Path_33" data-name="Path 33" d="M30.023,39.845v-.813a8.472,8.472,0,0,0,.663-.6A12.081,12.081,0,0,0,33.744,31.7a5.939,5.939,0,0,0,3.835-2.28c1.281-1.812,1.4-4.419.327-7.689a.884.884,0,0,0-.353-.46l-.486-.327A11.983,11.983,0,0,0,34.2,12.874c-2.377-2.678-6.027-4.03-10.861-4.048-4.825,0-8.484,1.37-10.861,4.012a11.983,11.983,0,0,0-2.863,8.069l-.486.327a.884.884,0,0,0-.353.46c-1.069,3.288-.954,5.877.327,7.689a5.956,5.956,0,0,0,3.835,2.307,12.09,12.09,0,0,0,3.067,6.743,8.621,8.621,0,0,0,.663.6v.813C13.285,40.5-.227,43.672,0,52.686a.884.884,0,0,0,.884.884h44.92a.884.884,0,0,0,.884-.884C46.92,43.672,33.408,40.5,30.023,39.845ZM12.41,29.718a3.835,3.835,0,0,1-1.874-1.37l.044.009c-.884-1.29-.963-3.243-.177-5.824l.645-.433a.884.884,0,0,0,.389-.822A10.446,10.446,0,0,1,13.842,14c2-2.262,5.205-3.394,9.5-3.411s7.5,1.149,9.536,3.411a10.446,10.446,0,0,1,2.4,7.273.884.884,0,0,0,.389.822l.645.433c.787,2.572.734,4.534-.177,5.824a3.854,3.854,0,0,1-1.882,1.37,5.885,5.885,0,0,0,1.44-4.419,4.136,4.136,0,0,0-1.423-2.474C33.894,14,27.7,13.006,25.03,13.006a11.14,11.14,0,0,0-1.688.124,11.125,11.125,0,0,0-1.688-.124c-2.651,0-8.837.972-9.244,9.827A4.136,4.136,0,0,0,10.97,25.3,5.877,5.877,0,0,0,12.41,29.718Zm20.105-7.247A18.206,18.206,0,0,1,21.955,19.82a.884.884,0,0,0-1.149.115c-1.767,1.9-4.993,2.342-6.548,2.439.477-6.248,4.26-7.609,7.441-7.609a8.543,8.543,0,0,1,1.511.124.882.882,0,0,0,.353,0,8.584,8.584,0,0,1,1.511-.124c3.155,0,6.955,1.4,7.4,7.7ZM14.567,29.885l.035.009a.883.883,0,0,0-.221-.592c-1.211-1.387-1.767-2.651-1.617-3.694a2.342,2.342,0,0,1,.8-1.494c1.167,0,5.3-.221,7.954-2.51a19.928,19.928,0,0,0,9.809,2.651,11.654,11.654,0,0,0,1.821-.1,2.333,2.333,0,0,1,.8,1.449c.15,1.025-.407,2.307-1.617,3.694a.883.883,0,0,0-.221.592v.46l-5.143,2.757a2.545,2.545,0,1,0,.8,1.847q.006-.119,0-.239l4.056-2.174a9.722,9.722,0,0,1-2.368,4.666A7.874,7.874,0,0,1,23.59,39.4h-.442a7.892,7.892,0,0,1-5.85-2.183C14.5,34.437,14.567,29.93,14.567,29.885Zm11.427,5.073a.787.787,0,1,1-.787-.787A.787.787,0,0,1,25.993,34.958ZM22.458,51.749H1.8c.7-6.637,11.489-9.412,14.864-10.128V43.2c0,2.006,2.439,3.535,5.8,3.791ZM18.429,43.2V40.155a10.685,10.685,0,0,0,4.693.99h.442a10.685,10.685,0,0,0,4.693-.99V43.2c0,.84-1.918,2.05-4.914,2.05S18.429,44.043,18.429,43.2Zm5.8,8.572v-4.79c3.358-.23,5.8-1.767,5.8-3.791V41.648c3.4.707,14.14,3.482,14.864,10.128H24.226Z" transform="translate(0 -8.826)" fill="#fff"/>
    </g>
  </g>
</svg>
