<svg xmlns="http://www.w3.org/2000/svg" width="48.365" height="51.23" viewBox="0 0 48.365 51.23">
  <g id="delivery-man" transform="translate(-14.317)">
    <g id="Group_83" data-name="Group 83" transform="translate(30.816 8.538)">
      <g id="Group_82" data-name="Group 82">
        <path id="Path_34" data-name="Path 34" d="M192.871,85.333V89.6a5.977,5.977,0,0,1-11.954,0V85.333H179.21V89.6a7.685,7.685,0,1,0,15.369,0V85.333Z" transform="translate(-179.21 -85.333)" fill="#fff"/>
      </g>
    </g>
    <g id="Group_85" data-name="Group 85" transform="translate(41.915 17.931)">
      <g id="Group_84" data-name="Group 84" transform="translate(0)">
        <path id="Path_35" data-name="Path 35" d="M310.721,205.07l-4.6-18.4a4.278,4.278,0,0,0-4.074-3.2l-10.21-.792V179.2h-1.708v4.269a.854.854,0,0,0,.788.851l11.066.856h.005a2.56,2.56,0,0,1,2.479,1.914l4.594,18.393a4.27,4.27,0,0,1-4.142,5.308V212.5a5.975,5.975,0,0,0,5.8-7.43Z" transform="translate(-290.134 -179.2)" fill="#fff"/>
      </g>
    </g>
    <g id="Group_87" data-name="Group 87" transform="translate(14.317 17.931)">
      <g id="Group_86" data-name="Group 86" transform="translate(0)">
        <path id="Path_36" data-name="Path 36" d="M33.378,179.2v3.479l-10.142.79h-.009a4.271,4.271,0,0,0-4.135,3.209L14.5,205.069a5.977,5.977,0,0,0,5.8,7.431v-1.708a4.27,4.27,0,0,1-4.141-5.309L20.748,187.1a2.587,2.587,0,0,1,2.553-1.924l11-.854a.854.854,0,0,0,.787-.851V179.2Z" transform="translate(-14.317 -179.2)" fill="#fff"/>
      </g>
    </g>
    <g id="Group_89" data-name="Group 89" transform="translate(30.816)">
      <g id="Group_88" data-name="Group 88">
        <path id="Path_37" data-name="Path 37" d="M190.31,0h-6.831a4.274,4.274,0,0,0-4.269,4.269V9.392a.854.854,0,0,0,.854.854h13.661a.854.854,0,0,0,.854-.854V4.269A4.274,4.274,0,0,0,190.31,0Zm2.562,8.538H180.918V4.269a2.565,2.565,0,0,1,2.562-2.562h6.831a2.565,2.565,0,0,1,2.562,2.562V8.538Z" transform="translate(-179.21)" fill="#fff"/>
      </g>
    </g>
    <g id="Group_91" data-name="Group 91" transform="translate(30.816 5.123)">
      <g id="Group_90" data-name="Group 90">
        <path id="Path_38" data-name="Path 38" d="M190.309,51.2h-6.831a4.274,4.274,0,0,0-4.269,4.269.854.854,0,0,0,.854.854h13.661a.854.854,0,0,0,.854-.854A4.274,4.274,0,0,0,190.309,51.2Zm-9.245,3.415a2.565,2.565,0,0,1,2.415-1.708h6.831a2.566,2.566,0,0,1,2.416,1.708Z" transform="translate(-179.209 -51.2)" fill="#fff"/>
      </g>
    </g>
    <g id="Group_93" data-name="Group 93" transform="translate(36.793 9.392)">
      <g id="Group_92" data-name="Group 92">
        <path id="Path_39" data-name="Path 39" d="M240.651,97.282V93.867h-1.708v4.269a.854.854,0,0,0,.854.854H241.5V97.282Z" transform="translate(-238.943 -93.867)" fill="#fff"/>
      </g>
    </g>
    <g id="Group_95" data-name="Group 95" transform="translate(18.863 41.838)">
      <g id="Group_94" data-name="Group 94" transform="translate(0)">
        <path id="Path_40" data-name="Path 40" d="M71.7,422.4H64.866v-1.708a2.562,2.562,0,0,0-5.123,0v5.977a.854.854,0,0,0,.854.854h7.685a4.274,4.274,0,0,0,4.269-4.269A.854.854,0,0,0,71.7,422.4Zm-3.415,3.415H61.451v-5.123a.854.854,0,0,1,1.708,0v2.562a.854.854,0,0,0,.854.854H70.7A2.566,2.566,0,0,1,68.281,425.818Z" transform="translate(-59.743 -418.133)" fill="#fff"/>
      </g>
    </g>
    <g id="Group_97" data-name="Group 97" transform="translate(17.154 36.715)">
      <g id="Group_96" data-name="Group 96">
        <rect id="Rectangle_17" data-name="Rectangle 17" width="5.977" height="1.708" fill="#fff"/>
      </g>
    </g>
    <g id="Group_99" data-name="Group 99" transform="translate(53.869 36.715)">
      <g id="Group_98" data-name="Group 98">
        <rect id="Rectangle_18" data-name="Rectangle 18" width="5.977" height="1.708" fill="#fff"/>
      </g>
    </g>
    <g id="Group_101" data-name="Group 101" transform="translate(22.278 25.615)">
      <g id="Group_100" data-name="Group 100">
        <path id="Path_41" data-name="Path 41" d="M125.469,256H94.731a.854.854,0,0,0-.854.854v20.492a.854.854,0,0,0,.854.854h30.738a.854.854,0,0,0,.854-.854V256.854A.854.854,0,0,0,125.469,256Zm-.854,20.492H95.585V257.708h29.03v18.784Z" transform="translate(-93.877 -256)" fill="#fff"/>
      </g>
    </g>
    <g id="Group_103" data-name="Group 103" transform="translate(49.6 42.692)">
      <g id="Group_102" data-name="Group 102" transform="translate(0)">
        <rect id="Rectangle_19" data-name="Rectangle 19" width="1.708" height="1.708" fill="#fff"/>
      </g>
    </g>
    <g id="Group_105" data-name="Group 105" transform="translate(46.185 42.692)">
      <g id="Group_104" data-name="Group 104">
        <rect id="Rectangle_20" data-name="Rectangle 20" width="1.708" height="1.708" fill="#fff"/>
      </g>
    </g>
    <g id="Group_107" data-name="Group 107" transform="translate(33.628 21.596)">
      <g id="Group_106" data-name="Group 106" transform="translate(0)">
        <path id="Path_42" data-name="Path 42" d="M215.848,215.834l-3.665,3.666-3.666-3.666-1.207,1.207,4.269,4.269a.853.853,0,0,0,1.207,0l4.268-4.269Z" transform="translate(-207.31 -215.834)" fill="#fff"/>
      </g>
    </g>
    <g id="Group_109" data-name="Group 109" transform="translate(45.332 41.838)">
      <g id="Group_108" data-name="Group 108" transform="translate(0)">
        <path id="Path_43" data-name="Path 43" d="M334.523,418.133a2.565,2.565,0,0,0-2.562,2.561V422.4h-6.831a.853.853,0,0,0-.854.854,4.274,4.274,0,0,0,4.269,4.269h7.685a.854.854,0,0,0,.854-.854v-5.977A2.565,2.565,0,0,0,334.523,418.133Zm.854,7.685h-6.831a2.567,2.567,0,0,1-2.416-1.708h6.685a.853.853,0,0,0,.854-.854v-2.561a.854.854,0,1,1,1.708,0v5.123Z" transform="translate(-324.277 -418.133)" fill="#fff"/>
      </g>
    </g>
    <g id="Group_111" data-name="Group 111" transform="translate(23.131 31.592)">
      <g id="Group_110" data-name="Group 110" transform="translate(0)">
        <rect id="Rectangle_21" data-name="Rectangle 21" width="30.738" height="1.708" fill="#fff"/>
      </g>
    </g>
    <g id="Group_113" data-name="Group 113" transform="translate(34.232 25.615)">
      <g id="Group_112" data-name="Group 112" transform="translate(0)">
        <path id="Path_44" data-name="Path 44" d="M221.028,256H214.2a.854.854,0,0,0-.854.854v11.1a.854.854,0,0,0,.854.854h6.831a.854.854,0,0,0,.854-.854v-11.1A.854.854,0,0,0,221.028,256Zm-.854,11.1h-5.123v-9.392h5.123Z" transform="translate(-213.343 -256)" fill="#fff"/>
      </g>
    </g>
  </g>
</svg>
