<svg id="check-in" xmlns="http://www.w3.org/2000/svg" width="46.23" height="46.23" viewBox="0 0 46.23 46.23">
  <path id="Path_45" data-name="Path 45" d="M79.705,59.853a3.853,3.853,0,1,0-3.853,3.853A3.853,3.853,0,0,0,79.705,59.853Zm-6.164,0a2.312,2.312,0,1,1,2.312,2.312A2.312,2.312,0,0,1,73.541,59.853Zm0,0" transform="translate(-65.065 -50.606)" fill="#fff"/>
  <path id="Path_46" data-name="Path 46" d="M.771,183.591H11.558V182.05H1.541V164.328H26.2v-1.541a3.082,3.082,0,0,0-2.312-2.973v-1.65H22.345v1.65a3.082,3.082,0,0,0-2.312,2.973H18.492v-6.935A3.857,3.857,0,0,0,14.64,152H6.935a3.857,3.857,0,0,0-3.853,3.853v6.935H.771a.771.771,0,0,0-.771.77V182.82A.771.771,0,0,0,.771,183.591Zm22.345-22.345a1.541,1.541,0,0,1,1.541,1.541H21.574A1.541,1.541,0,0,1,23.115,161.246ZM4.623,155.853a2.312,2.312,0,0,1,2.312-2.312H14.64a2.312,2.312,0,0,1,2.312,2.312v6.935H15.41v-6.164H13.869v6.164H7.705v-6.164H6.164v6.164H4.623Zm0,0" transform="translate(0 -137.36)" fill="#fff"/>
  <path id="Path_47" data-name="Path 47" d="M435.853,264h-.77v19.263H432V284.8h3.853a.771.771,0,0,0,.771-.771V264.771A.771.771,0,0,0,435.853,264Zm0,0" transform="translate(-390.393 -238.573)" fill="#fff"/>
  <path id="Path_48" data-name="Path 48" d="M335.705,59.853a3.853,3.853,0,1,0-3.853,3.853A3.853,3.853,0,0,0,335.705,59.853Zm-6.164,0a2.312,2.312,0,1,1,2.312,2.312A2.312,2.312,0,0,1,329.541,59.853Zm0,0" transform="translate(-296.409 -50.606)" fill="#fff"/>
  <path id="Path_49" data-name="Path 49" d="M288,155.853v11.558a.771.771,0,0,0,.77.771h2.312v12.1L289.67,182.4a.77.77,0,0,0,.641,1.2h9.246a.771.771,0,0,0,.771-.771v-14.64h2.312a.771.771,0,0,0,.77-.77V155.853A3.857,3.857,0,0,0,299.557,152h-7.705A3.857,3.857,0,0,0,288,155.853Zm13.869,0V166.64h-1.541V156.623h-1.541V182.05h-2.312V169.722h-1.541V182.05h-3.184l.743-1.113a.777.777,0,0,0,.129-.428V156.623h-1.541V166.64h-1.541V155.853a2.312,2.312,0,0,1,2.312-2.311h7.705A2.312,2.312,0,0,1,301.869,155.853Zm0,0" transform="translate(-260.262 -137.361)" fill="#fff"/>
  <path id="Path_50" data-name="Path 50" d="M192,360h1.541v8.476H192Zm0,0" transform="translate(-173.508 -325.327)" fill="#fff"/>
  <path id="Path_51" data-name="Path 51" d="M232,360h1.541v8.476H232Zm0,0" transform="translate(-209.655 -325.327)" fill="#fff"/>
  <path id="Path_52" data-name="Path 52" d="M146.023,296h-3.853a.771.771,0,0,0-.771.771v2.312h-1.541a2.312,2.312,0,0,0-2.312,2.311v7.847a2.306,2.306,0,0,0,.77,4.481,2.272,2.272,0,0,0,.781-.146,2.28,2.28,0,0,0,.76.146h8.476a2.312,2.312,0,0,0,2.312-2.312V301.394a2.312,2.312,0,0,0-2.312-2.311h-1.541v-2.312A.771.771,0,0,0,146.023,296Zm-3.082,1.541h2.312v1.541h-2.312Zm-4.623,14.64a.771.771,0,1,1,.771-.771A.771.771,0,0,1,138.318,312.181Zm10.017-11.558a.771.771,0,0,1,.771.771V311.41a.771.771,0,0,1-.771.771h-7.847a2.27,2.27,0,0,0-1.4-2.94v-7.847a.771.771,0,0,1,.77-.771Zm0,0" transform="translate(-122.908 -267.491)" fill="#fff"/>
  <path id="Path_53" data-name="Path 53" d="M174.935,0a6.935,6.935,0,1,0,6.935,6.935A6.934,6.934,0,0,0,174.935,0Zm0,12.328a5.394,5.394,0,1,1,5.394-5.394A5.393,5.393,0,0,1,174.935,12.328Zm0,0" transform="translate(-151.819)" fill="#fff"/>
  <path id="Path_54" data-name="Path 54" d="M233.541,34.866V32H232v3.853a.77.77,0,0,0,.957.748l3.082-.771-.373-1.5Zm0,0" transform="translate(-209.655 -28.918)" fill="#fff"/>
  <path id="Path_55" data-name="Path 55" d="M32,328h1.541v4.623H32Zm0,0" transform="translate(-28.918 -296.409)" fill="#fff"/>
  <path id="Path_56" data-name="Path 56" d="M32,296h1.541v1.541H32Zm0,0" transform="translate(-28.918 -267.491)" fill="#fff"/>
</svg>
