<svg xmlns="http://www.w3.org/2000/svg" width="50.913" height="50" viewBox="0 0 50.913 50">
  <path id="office-boy" d="M50.828,49.65,44.615,38.286a2.375,2.375,0,0,0-.508-1.217,2.278,2.278,0,0,0,.518-1.419c0-1.7-1.978-2.909-4.641-3.593a14.343,14.343,0,0,0-7.645-6.876.5.5,0,0,0-.056-.007l.029-.522a.685.685,0,1,0-1.369-.075l-.163,2.965-1.833-.861a.686.686,0,1,0-.583,1.241l2.754,1.293a.689.689,0,0,0,.291.065.686.686,0,0,0,.684-.649L32.2,26.6a12.836,12.836,0,0,1,5.986,5.085,24.092,24.092,0,0,0-3.684-.281,17.835,17.835,0,0,0-8.28,1.734V29.4a.686.686,0,0,0-1.371,0v4.805a.587.587,0,0,0,.016.077,2.189,2.189,0,0,0,.037,2.783,2.661,2.661,0,0,0-.354.607H20.373v-3.7a.686.686,0,0,0-.686-.686H16.994s-.009,0-.013,0a7.692,7.692,0,0,0-4.554-1.27,10.464,10.464,0,0,1,6.36-5.468l.113,2.073a.685.685,0,0,0,.976.584l2.753-1.292a.686.686,0,0,0-.583-1.241l-1.832.86-.163-2.965a.685.685,0,1,0-1.369.075l.028.51h0a11.849,11.849,0,0,0-7.8,6.936c-2.211.246-4.127,1.112-4.127,2.556,0,.03.007.058.009.088,0,.005,0,.01,0,.015l.007.044a1.484,1.484,0,0,0,.034.222l.365,2.417h-.25a.684.684,0,0,0-.538.261c-.365.462-1.835,3.294-4.034,7.561-.959,1.86-1.865,3.618-2.287,4.39a.686.686,0,0,0,.6,1.015H50.227a.686.686,0,0,0,.6-1.016Zm-7.575-5.515c0,1.2-3.328,2.871-8.747,2.871s-8.746-1.672-8.746-2.871a.908.908,0,0,1,.182-.5c1.91,1.252,5.3,1.914,8.564,1.914s6.655-.662,8.564-1.914A.91.91,0,0,1,43.254,44.135Zm-8.747-4.243c3.263,0,6.655-.662,8.564-1.914a.908.908,0,0,1,.182.5c0,1.2-3.328,2.871-8.747,2.871s-8.746-1.672-8.746-2.871a.908.908,0,0,1,.182-.5C27.854,39.23,31.244,39.892,34.507,39.892Zm8.747,1.415c0,1.2-3.328,2.871-8.747,2.871s-8.746-1.672-8.746-2.871a.908.908,0,0,1,.182-.5c1.91,1.252,5.3,1.914,8.564,1.914s6.655-.662,8.564-1.914A.91.91,0,0,1,43.254,41.306ZM39.308,33.29c.019.006.038.009.058.014,2.474.59,3.887,1.567,3.887,2.346,0,1.2-3.328,2.871-8.747,2.871S25.76,36.849,25.76,35.65s3.328-2.871,8.746-2.871A21.2,21.2,0,0,1,39.308,33.29ZM19,37.676H17.229l.4-2.654a1.48,1.48,0,0,0,.034-.223l.007-.043s0-.01,0-.015c0-.025.008-.05.008-.076H19v3.012Zm-6.772,6.5a6.417,6.417,0,0,0-2.559.48L8.452,36.6a9.771,9.771,0,0,0,3.777.685,9.768,9.768,0,0,0,3.777-.685l-1.218,8.056A6.428,6.428,0,0,0,12.229,44.175ZM14.54,46.1a3.857,3.857,0,0,1-2.311.553A3.856,3.856,0,0,1,9.918,46.1a3.858,3.858,0,0,1,2.311-.553A3.857,3.857,0,0,1,14.54,46.1ZM12.229,33.393c2.622,0,4.044.874,4.073,1.247l-.006.041c-.061.38-1.476,1.232-4.067,1.232s-4.007-.852-4.068-1.232l-.006-.041C8.184,34.268,9.607,33.393,12.229,33.393Zm-10.4,15.9c.462-.881,1.081-2.082,1.762-3.405C4.857,43.43,6.7,39.851,7.315,38.809H7.4L8.518,46.2s0,0,0,.005c.1,1.245,1.969,1.816,3.709,1.816s3.6-.57,3.708-1.816c0,0,0,0,0-.005l1.083-7.155h7.452a2.447,2.447,0,0,0,.433.85,2.3,2.3,0,0,0-.518,1.409,2.278,2.278,0,0,0,.518,1.419,2.3,2.3,0,0,0-.518,1.409c0,2.755,5.213,4.242,10.117,4.242s10.118-1.487,10.118-4.242a2.3,2.3,0,0,0-.518-1.409,2.278,2.278,0,0,0,.518-1.419c0-.05,0-.1-.008-.159l4.453,8.145H1.827ZM17.683,18.234A8.393,8.393,0,0,0,25.5,26.077a8.4,8.4,0,0,0,7.814-7.843,3.847,3.847,0,0,0,1.974-3.624c-.012-.394-.047-1.594-.936-1.93s-1.749.538-1.915.715a.686.686,0,0,0,1,.937,1.876,1.876,0,0,1,.4-.311,2.4,2.4,0,0,1,.082.629A2.372,2.372,0,0,1,32.487,17.1l-2.517.551a41.962,41.962,0,0,0-8.947,0L18.508,17.1a2.373,2.373,0,0,1-1.428-2.454,2.38,2.38,0,0,1,.082-.629,1.825,1.825,0,0,1,.4.311.686.686,0,0,0,1-.937c-.166-.178-1.04-1.047-1.915-.715s-.925,1.535-.937,1.93A3.845,3.845,0,0,0,17.683,18.234Zm1.447.41,1.218.267.363,3.309A7.567,7.567,0,0,1,19.129,18.644Zm11.155,3.573.361-3.306,1.218-.267A7.582,7.582,0,0,1,30.284,22.217ZM29.26,18.959,28.753,23.6a6.266,6.266,0,0,1-3.258,1.1,6.265,6.265,0,0,1-3.255-1.1l-.509-4.646A40.611,40.611,0,0,1,29.26,18.959ZM16.671,10.694a.684.684,0,0,0,.222.089v.543a.686.686,0,1,0,1.371,0v-.961A21.471,21.471,0,0,1,25.5,8.977a21.474,21.474,0,0,1,7.231,1.387v.961a.686.686,0,1,0,1.371,0v-.543a.667.667,0,0,0,.535-.664V3.18a.685.685,0,0,0-.407-.627A23,23,0,0,0,25.5.666a23,23,0,0,0-8.73,1.887.687.687,0,0,0-.407.627v6.939A.685.685,0,0,0,16.671,10.694ZM17.73,3.632A21.585,21.585,0,0,1,25.5,2.038a21.586,21.586,0,0,1,7.766,1.594V9.1A22.99,22.99,0,0,0,25.5,7.605,22.99,22.99,0,0,0,17.73,9.1V3.632Z" transform="translate(0 -0.666)" fill="#fff"/>
</svg>
