<svg id="phone-banking" xmlns="http://www.w3.org/2000/svg" width="46.569" height="43.464" viewBox="0 0 46.569 43.464">
  <path id="Path_57" data-name="Path 57" d="M44.24,191.977H2.328A2.331,2.331,0,0,0,0,194.305v20.182a2.331,2.331,0,0,0,2.328,2.328H44.24a2.331,2.331,0,0,0,2.328-2.328V194.305A2.331,2.331,0,0,0,44.24,191.977Zm0,23.287H2.328a.777.777,0,0,1-.776-.776v-9.316l10.862,0v-1.552l-10.862,0v-9.314a.777.777,0,0,1,.776-.776H44.24a.777.777,0,0,1,.776.776v9.314l-10.87,0v1.552l10.87,0v9.316A.777.777,0,0,1,44.24,215.264Zm0,0" transform="translate(0 -173.352)" fill="#fff"/>
  <path id="Path_58" data-name="Path 58" d="M177.552,29.14c0-.158.055-3.866,4.633-3.88h.045c4.466.011,4.632,3.487,4.636,3.88v2.331h1.552V29.14a5.6,5.6,0,0,0-3.3-4.908,4.657,4.657,0,1,0-5.825,0A5.6,5.6,0,0,0,176,29.14v2.331h1.552ZM179.1,20.6a3.1,3.1,0,1,1,3.121,3.1h-.029a3.107,3.107,0,0,1-3.091-3.1Zm0,0" transform="translate(-158.925 -14.395)" fill="#fff"/>
  <path id="Path_59" data-name="Path 59" d="M153.275,224a9.314,9.314,0,1,0,9.314,9.314A9.314,9.314,0,0,0,153.275,224Zm0,17.075a7.761,7.761,0,1,1,7.761-7.761A7.761,7.761,0,0,1,153.275,241.075Zm0,0" transform="translate(-129.994 -202.268)" fill="#fff"/>
  <path id="Path_60" data-name="Path 60" d="M26.289,103.761h10.09V96H26.289a2.318,2.318,0,0,0-1.723,3.881,2.318,2.318,0,0,0,1.723,3.881Zm8.538-1.552H26.289a.776.776,0,0,1,0-1.552h8.538Zm-8.538-4.657h8.538V99.1H26.289a.776.776,0,1,1,0-1.552Zm0,0" transform="translate(-21.636 -86.686)" fill="#fff"/>
  <path id="Path_61" data-name="Path 61" d="M321.513,16.3a.777.777,0,0,1,.776-.776h10.866a.777.777,0,0,1,.776.776v.776h1.552V16.3a2.331,2.331,0,0,0-2.328-2.328H328.5V12.418h4.657a2.331,2.331,0,0,0,2.328-2.328V2.328A2.331,2.331,0,0,0,333.156,0H322.289a2.331,2.331,0,0,0-2.328,2.328V10.09a2.331,2.331,0,0,0,2.328,2.328h4.657v1.552h-4.657a2.331,2.331,0,0,0-2.328,2.328v.776h1.552Zm0-6.209V2.328a.777.777,0,0,1,.776-.776h10.866a.777.777,0,0,1,.776.776V10.09a.777.777,0,0,1-.776.776h-1.7a2.31,2.31,0,0,0,.143-.776v-3.1a2.331,2.331,0,0,0-2.328-2.328h-3.1a2.331,2.331,0,0,0-2.328,2.328v3.1a2.3,2.3,0,0,0,.143.776h-1.7A.777.777,0,0,1,321.513,10.09Zm4.657.776a.777.777,0,0,1-.776-.776v-3.1a.777.777,0,0,1,.776-.776h3.1a.777.777,0,0,1,.776.776v3.1a.777.777,0,0,1-.776.776H328.5V8.538h-1.552v2.328Zm0,0" transform="translate(-288.919)" fill="#fff"/>
  <path id="Path_62" data-name="Path 62" d="M207.722,259.881V259.1a1.554,1.554,0,0,0-1.552-1.552h-1.552V256h-1.552v1.552h-1.552a1.554,1.554,0,0,0-1.552,1.552v2.328a1.554,1.554,0,0,0,1.552,1.552h1.552v2.328h-1.552v-.776h-1.552v.776a1.554,1.554,0,0,0,1.552,1.552h1.552v1.552h1.552v-1.552h1.552a1.554,1.554,0,0,0,1.552-1.552v-2.328a1.554,1.554,0,0,0-1.552-1.552h-1.552V259.1h1.552v.776Zm-1.552,3.1v2.328h-1.552v-2.328Zm-3.1-1.552h-1.552V259.1h1.552Zm0,0" transform="translate(-180.561 -231.163)" fill="#fff"/>
</svg>
