<svg id="accounting" xmlns="http://www.w3.org/2000/svg" width="45.464" height="45.464" viewBox="0 0 45.464 45.464">
  <g id="Group_114" data-name="Group 114">
    <path id="Path_63" data-name="Path 63" d="M51.49,20H28.758a.716.716,0,0,0-.758.758V49.552a.716.716,0,0,0,.758.758H51.49a.716.716,0,0,0,.758-.758V20.758A.716.716,0,0,0,51.49,20Zm-.758,1.515v4.546H29.515V24.546h9.093V23.031H29.515V21.515ZM29.515,48.794V27.577H50.732V48.794Z" transform="translate(-6.783 -4.845)" fill="#fff"/>
    <rect id="Rectangle_32" data-name="Rectangle 32" width="2.273" height="1.515" transform="translate(26.521 24.248)" fill="#fff"/>
    <rect id="Rectangle_33" data-name="Rectangle 33" width="2.273" height="1.515" transform="translate(30.31 24.248)" fill="#fff"/>
    <rect id="Rectangle_34" data-name="Rectangle 34" width="2.273" height="1.515" transform="translate(34.098 24.248)" fill="#fff"/>
    <rect id="Rectangle_35" data-name="Rectangle 35" width="2.273" height="1.515" transform="translate(37.887 24.248)" fill="#fff"/>
    <rect id="Rectangle_36" data-name="Rectangle 36" width="3.031" height="1.515" transform="translate(25.005 28.036)" fill="#fff"/>
    <rect id="Rectangle_37" data-name="Rectangle 37" width="3.031" height="1.515" transform="translate(29.552 28.036)" fill="#fff"/>
    <rect id="Rectangle_38" data-name="Rectangle 38" width="3.031" height="1.515" transform="translate(34.098 28.036)" fill="#fff"/>
    <rect id="Rectangle_39" data-name="Rectangle 39" width="3.031" height="1.515" transform="translate(38.645 28.036)" fill="#fff"/>
    <rect id="Rectangle_40" data-name="Rectangle 40" width="3.031" height="1.515" transform="translate(25.005 31.067)" fill="#fff"/>
    <rect id="Rectangle_41" data-name="Rectangle 41" width="3.031" height="1.515" transform="translate(29.552 31.067)" fill="#fff"/>
    <rect id="Rectangle_42" data-name="Rectangle 42" width="3.031" height="1.515" transform="translate(34.098 31.067)" fill="#fff"/>
    <rect id="Rectangle_43" data-name="Rectangle 43" width="3.031" height="1.515" transform="translate(38.645 31.067)" fill="#fff"/>
    <rect id="Rectangle_44" data-name="Rectangle 44" width="3.031" height="1.515" transform="translate(25.005 34.098)" fill="#fff"/>
    <rect id="Rectangle_45" data-name="Rectangle 45" width="3.031" height="1.515" transform="translate(29.552 34.098)" fill="#fff"/>
    <rect id="Rectangle_46" data-name="Rectangle 46" width="3.031" height="1.515" transform="translate(34.098 34.098)" fill="#fff"/>
    <rect id="Rectangle_47" data-name="Rectangle 47" width="3.031" height="1.515" transform="translate(38.645 34.098)" fill="#fff"/>
    <rect id="Rectangle_48" data-name="Rectangle 48" width="3.031" height="1.515" transform="translate(25.005 37.129)" fill="#fff"/>
    <rect id="Rectangle_49" data-name="Rectangle 49" width="3.031" height="1.515" transform="translate(29.552 37.129)" fill="#fff"/>
    <rect id="Rectangle_50" data-name="Rectangle 50" width="3.031" height="1.515" transform="translate(34.098 37.129)" fill="#fff"/>
    <rect id="Rectangle_51" data-name="Rectangle 51" width="3.031" height="1.515" transform="translate(38.645 37.129)" fill="#fff"/>
    <rect id="Rectangle_52" data-name="Rectangle 52" width="3.031" height="1.515" transform="translate(25.005 40.16)" fill="#fff"/>
    <rect id="Rectangle_53" data-name="Rectangle 53" width="3.031" height="1.515" transform="translate(29.552 40.16)" fill="#fff"/>
    <rect id="Rectangle_54" data-name="Rectangle 54" width="3.031" height="1.515" transform="translate(34.098 40.16)" fill="#fff"/>
    <rect id="Rectangle_55" data-name="Rectangle 55" width="3.031" height="1.515" transform="translate(38.645 40.16)" fill="#fff"/>
    <path id="Path_64" data-name="Path 64" d="M1.515,10.608H9.851a.716.716,0,0,0,.758-.758V1.515H36.371V12.124h1.515V.758A.716.716,0,0,0,37.129,0H9.851a.278.278,0,0,0-.227.076H9.548C9.472.152,9.4.152,9.32.227L.227,9.32c-.076.076-.076.152-.152.227v.076C.076,9.7,0,9.775,0,9.851H0v8.335H1.515ZM9.093,9.093H2.576L5.835,5.835,9.093,2.576V9.093Z" fill="#fff"/>
    <path id="Path_65" data-name="Path 65" d="M18.943,39.366H10.608V28.758A.716.716,0,0,0,9.851,28H.758A.716.716,0,0,0,0,28.758V51.49a.716.716,0,0,0,.758.758H18.943a.716.716,0,0,0,.758-.758V40.124A.716.716,0,0,0,18.943,39.366ZM1.515,40.882H9.093v2.273H1.515Zm7.577-1.515H1.515V37.093H9.093Zm0-3.789H1.515V33.3H9.093ZM1.515,44.67H9.093v2.273H1.515Zm9.093,0h7.577v2.273H10.608Zm7.577-1.515H10.608V40.882h7.577ZM1.515,29.515H9.093v2.273H1.515Zm0,18.943H9.093v2.273H1.515Zm16.67,2.273H10.608V48.459h7.577Z" transform="translate(0 -6.783)" fill="#fff"/>
    <rect id="Rectangle_56" data-name="Rectangle 56" width="5.304" height="1.515" transform="translate(28.794 3.789)" fill="#fff"/>
    <rect id="Rectangle_57" data-name="Rectangle 57" width="13.639" height="1.515" transform="translate(20.459 7.577)" fill="#fff"/>
    <rect id="Rectangle_58" data-name="Rectangle 58" width="2.273" height="1.515" transform="translate(33.341 18.186)" fill="#fff"/>
  </g>
</svg>
