<svg id="market" xmlns="http://www.w3.org/2000/svg" width="51.365" height="51.365" viewBox="0 0 51.365 51.365">
  <g id="Group_116" data-name="Group 116">
    <g id="Group_115" data-name="Group 115">
      <path id="Path_66" data-name="Path 66" d="M47.085,0H4.28A4.285,4.285,0,0,0,0,4.28V34.243a4.285,4.285,0,0,0,4.28,4.28H18.664l-1.4,7.7H13.9a2.568,2.568,0,1,0,0,5.137H37.465a2.568,2.568,0,0,0,0-5.137H34.1l-1.4-7.7H47.085a4.285,4.285,0,0,0,4.28-4.28V4.28A4.285,4.285,0,0,0,47.085,0Zm-13.7,47.941h4.078a.856.856,0,1,1,0,1.712H13.9a.856.856,0,0,1,0-1.712H24.826a.856.856,0,1,0,0-1.712H19l1.4-7.7H30.96l1.4,7.7h-2.4a.856.856,0,1,0,0,1.712Zm16.266-13.7a2.571,2.571,0,0,1-2.568,2.568H4.28a2.571,2.571,0,0,1-2.568-2.568V31.675H49.653Zm0-4.28H1.712V4.28A2.571,2.571,0,0,1,4.28,1.712h42.8A2.571,2.571,0,0,1,49.653,4.28Z" fill="#fff"/>
    </g>
  </g>
  <g id="Group_118" data-name="Group 118" transform="translate(3.424 7.705)">
    <g id="Group_117" data-name="Group 117">
      <path id="Path_67" data-name="Path 67" d="M51.69,81.417H43.129V72.856A.856.856,0,0,0,42.273,72,10.273,10.273,0,1,0,52.546,82.273.856.856,0,0,0,51.69,81.417Zm-9.417,9.417a8.561,8.561,0,0,1-.856-17.079v8.518a.856.856,0,0,0,.856.856h8.518A8.573,8.573,0,0,1,42.273,90.834Z" transform="translate(-32 -72)" fill="#fff"/>
    </g>
  </g>
  <g id="Group_120" data-name="Group 120" transform="translate(16.266 4.28)">
    <g id="Group_119" data-name="Group 119">
      <path id="Path_68" data-name="Path 68" d="M152.856,40a.856.856,0,0,0-.856.856v9.417a.856.856,0,0,0,.856.856h9.417a.856.856,0,0,0,.856-.856A10.284,10.284,0,0,0,152.856,40Zm.856,9.417V41.755a8.576,8.576,0,0,1,7.662,7.662Z" transform="translate(-152 -40)" fill="#fff"/>
    </g>
  </g>
  <g id="Group_122" data-name="Group 122" transform="translate(29.107 3.424)">
    <g id="Group_121" data-name="Group 121">
      <path id="Path_69" data-name="Path 69" d="M289.978,32H272.856a.856.856,0,0,0-.856.856V55.97a.856.856,0,0,0,.856.856h17.122a.856.856,0,0,0,.856-.856V32.856A.856.856,0,0,0,289.978,32Zm-.856,23.114H273.712v-21.4h15.409Z" transform="translate(-272 -32)" fill="#fff"/>
    </g>
  </g>
  <g id="Group_124" data-name="Group 124" transform="translate(32.531 7.705)">
    <g id="Group_123" data-name="Group 123">
      <path id="Path_70" data-name="Path 70" d="M309.993,72h-5.137a.856.856,0,0,0,0,1.712h5.137a.856.856,0,1,0,0-1.712Z" transform="translate(-304 -72)" fill="#fff"/>
    </g>
  </g>
  <g id="Group_126" data-name="Group 126" transform="translate(32.531 11.129)">
    <g id="Group_125" data-name="Group 125">
      <path id="Path_71" data-name="Path 71" d="M315.129,104H304.856a.856.856,0,0,0,0,1.712h10.273a.856.856,0,0,0,0-1.712Z" transform="translate(-304 -104)" fill="#fff"/>
    </g>
  </g>
  <g id="Group_128" data-name="Group 128" transform="translate(32.531 14.553)">
    <g id="Group_127" data-name="Group 127">
      <path id="Path_72" data-name="Path 72" d="M309.993,136h-5.137a.856.856,0,0,0,0,1.712h5.137a.856.856,0,1,0,0-1.712Z" transform="translate(-304 -136)" fill="#fff"/>
    </g>
  </g>
  <g id="Group_130" data-name="Group 130" transform="translate(32.531 17.978)">
    <g id="Group_129" data-name="Group 129">
      <path id="Path_73" data-name="Path 73" d="M315.129,168H304.856a.856.856,0,0,0,0,1.712h10.273a.856.856,0,0,0,0-1.712Z" transform="translate(-304 -168)" fill="#fff"/>
    </g>
  </g>
  <g id="Group_132" data-name="Group 132" transform="translate(32.531 21.402)">
    <g id="Group_131" data-name="Group 131">
      <path id="Path_74" data-name="Path 74" d="M309.993,200h-5.137a.856.856,0,0,0,0,1.712h5.137a.856.856,0,1,0,0-1.712Z" transform="translate(-304 -200)" fill="#fff"/>
    </g>
  </g>
  <g id="Group_134" data-name="Group 134" transform="translate(23.114 33.387)">
    <g id="Group_133" data-name="Group 133">
      <path id="Path_75" data-name="Path 75" d="M220.28,312h-3.424a.856.856,0,0,0,0,1.712h3.424a.856.856,0,1,0,0-1.712Z" transform="translate(-216 -312)" fill="#fff"/>
    </g>
  </g>
</svg>
