<svg xmlns="http://www.w3.org/2000/svg" xmlns:xlink="http://www.w3.org/1999/xlink" width="396" height="460" viewBox="0 0 396 460">
  <defs>
    <clipPath id="clip-path">
      <rect width="396" height="460" fill="none"/>
    </clipPath>
  </defs>
  <g id="Repeat_Grid_2" data-name="Repeat Grid 2" opacity="0.1" clip-path="url(#clip-path)">
    <g transform="translate(-110 -2870)">
      <circle id="Ellipse_6" data-name="Ellipse 6" cx="6.5" cy="6.5" r="6.5" transform="translate(110 2870)" fill="#5e57a7"/>
    </g>
    <g transform="translate(-76 -2870)">
      <circle id="Ellipse_6-2" data-name="Ellipse 6" cx="6.5" cy="6.5" r="6.5" transform="translate(110 2870)" fill="#5e57a7"/>
    </g>
    <g transform="translate(-42 -2870)">
      <circle id="Ellipse_6-3" data-name="Ellipse 6" cx="6.5" cy="6.5" r="6.5" transform="translate(110 2870)" fill="#5e57a7"/>
    </g>
    <g transform="translate(-8 -2870)">
      <circle id="Ellipse_6-4" data-name="Ellipse 6" cx="6.5" cy="6.5" r="6.5" transform="translate(110 2870)" fill="#5e57a7"/>
    </g>
    <g transform="translate(26 -2870)">
      <circle id="Ellipse_6-5" data-name="Ellipse 6" cx="6.5" cy="6.5" r="6.5" transform="translate(110 2870)" fill="#5e57a7"/>
    </g>
    <g transform="translate(60 -2870)">
      <circle id="Ellipse_6-6" data-name="Ellipse 6" cx="6.5" cy="6.5" r="6.5" transform="translate(110 2870)" fill="#5e57a7"/>
    </g>
    <g transform="translate(94 -2870)">
      <circle id="Ellipse_6-7" data-name="Ellipse 6" cx="6.5" cy="6.5" r="6.5" transform="translate(110 2870)" fill="#5e57a7"/>
    </g>
    <g transform="translate(128 -2870)">
      <circle id="Ellipse_6-8" data-name="Ellipse 6" cx="6.5" cy="6.5" r="6.5" transform="translate(110 2870)" fill="#5e57a7"/>
    </g>
    <g transform="translate(162 -2870)">
      <circle id="Ellipse_6-9" data-name="Ellipse 6" cx="6.5" cy="6.5" r="6.5" transform="translate(110 2870)" fill="#5e57a7"/>
    </g>
    <g transform="translate(196 -2870)">
      <circle id="Ellipse_6-10" data-name="Ellipse 6" cx="6.5" cy="6.5" r="6.5" transform="translate(110 2870)" fill="#5e57a7"/>
    </g>
    <g transform="translate(230 -2870)">
      <circle id="Ellipse_6-11" data-name="Ellipse 6" cx="6.5" cy="6.5" r="6.5" transform="translate(110 2870)" fill="#5e57a7"/>
    </g>
    <g transform="translate(264 -2870)">
      <circle id="Ellipse_6-12" data-name="Ellipse 6" cx="6.5" cy="6.5" r="6.5" transform="translate(110 2870)" fill="#5e57a7"/>
    </g>
    <g transform="translate(-110 -2837)">
      <circle id="Ellipse_6-13" data-name="Ellipse 6" cx="6.5" cy="6.5" r="6.5" transform="translate(110 2870)" fill="#5e57a7"/>
    </g>
    <g transform="translate(-76 -2837)">
      <circle id="Ellipse_6-14" data-name="Ellipse 6" cx="6.5" cy="6.5" r="6.5" transform="translate(110 2870)" fill="#5e57a7"/>
    </g>
    <g transform="translate(-42 -2837)">
      <circle id="Ellipse_6-15" data-name="Ellipse 6" cx="6.5" cy="6.5" r="6.5" transform="translate(110 2870)" fill="#5e57a7"/>
    </g>
    <g transform="translate(-8 -2837)">
      <circle id="Ellipse_6-16" data-name="Ellipse 6" cx="6.5" cy="6.5" r="6.5" transform="translate(110 2870)" fill="#5e57a7"/>
    </g>
    <g transform="translate(26 -2837)">
      <circle id="Ellipse_6-17" data-name="Ellipse 6" cx="6.5" cy="6.5" r="6.5" transform="translate(110 2870)" fill="#5e57a7"/>
    </g>
    <g transform="translate(60 -2837)">
      <circle id="Ellipse_6-18" data-name="Ellipse 6" cx="6.5" cy="6.5" r="6.5" transform="translate(110 2870)" fill="#5e57a7"/>
    </g>
    <g transform="translate(94 -2837)">
      <circle id="Ellipse_6-19" data-name="Ellipse 6" cx="6.5" cy="6.5" r="6.5" transform="translate(110 2870)" fill="#5e57a7"/>
    </g>
    <g transform="translate(128 -2837)">
      <circle id="Ellipse_6-20" data-name="Ellipse 6" cx="6.5" cy="6.5" r="6.5" transform="translate(110 2870)" fill="#5e57a7"/>
    </g>
    <g transform="translate(162 -2837)">
      <circle id="Ellipse_6-21" data-name="Ellipse 6" cx="6.5" cy="6.5" r="6.5" transform="translate(110 2870)" fill="#5e57a7"/>
    </g>
    <g transform="translate(196 -2837)">
      <circle id="Ellipse_6-22" data-name="Ellipse 6" cx="6.5" cy="6.5" r="6.5" transform="translate(110 2870)" fill="#5e57a7"/>
    </g>
    <g transform="translate(230 -2837)">
      <circle id="Ellipse_6-23" data-name="Ellipse 6" cx="6.5" cy="6.5" r="6.5" transform="translate(110 2870)" fill="#5e57a7"/>
    </g>
    <g transform="translate(264 -2837)">
      <circle id="Ellipse_6-24" data-name="Ellipse 6" cx="6.5" cy="6.5" r="6.5" transform="translate(110 2870)" fill="#5e57a7"/>
    </g>
    <g transform="translate(-110 -2804)">
      <circle id="Ellipse_6-25" data-name="Ellipse 6" cx="6.5" cy="6.5" r="6.5" transform="translate(110 2870)" fill="#5e57a7"/>
    </g>
    <g transform="translate(-76 -2804)">
      <circle id="Ellipse_6-26" data-name="Ellipse 6" cx="6.5" cy="6.5" r="6.5" transform="translate(110 2870)" fill="#5e57a7"/>
    </g>
    <g transform="translate(-42 -2804)">
      <circle id="Ellipse_6-27" data-name="Ellipse 6" cx="6.5" cy="6.5" r="6.5" transform="translate(110 2870)" fill="#5e57a7"/>
    </g>
    <g transform="translate(-8 -2804)">
      <circle id="Ellipse_6-28" data-name="Ellipse 6" cx="6.5" cy="6.5" r="6.5" transform="translate(110 2870)" fill="#5e57a7"/>
    </g>
    <g transform="translate(26 -2804)">
      <circle id="Ellipse_6-29" data-name="Ellipse 6" cx="6.5" cy="6.5" r="6.5" transform="translate(110 2870)" fill="#5e57a7"/>
    </g>
    <g transform="translate(60 -2804)">
      <circle id="Ellipse_6-30" data-name="Ellipse 6" cx="6.5" cy="6.5" r="6.5" transform="translate(110 2870)" fill="#5e57a7"/>
    </g>
    <g transform="translate(94 -2804)">
      <circle id="Ellipse_6-31" data-name="Ellipse 6" cx="6.5" cy="6.5" r="6.5" transform="translate(110 2870)" fill="#5e57a7"/>
    </g>
    <g transform="translate(128 -2804)">
      <circle id="Ellipse_6-32" data-name="Ellipse 6" cx="6.5" cy="6.5" r="6.5" transform="translate(110 2870)" fill="#5e57a7"/>
    </g>
    <g transform="translate(162 -2804)">
      <circle id="Ellipse_6-33" data-name="Ellipse 6" cx="6.5" cy="6.5" r="6.5" transform="translate(110 2870)" fill="#5e57a7"/>
    </g>
    <g transform="translate(196 -2804)">
      <circle id="Ellipse_6-34" data-name="Ellipse 6" cx="6.5" cy="6.5" r="6.5" transform="translate(110 2870)" fill="#5e57a7"/>
    </g>
    <g transform="translate(230 -2804)">
      <circle id="Ellipse_6-35" data-name="Ellipse 6" cx="6.5" cy="6.5" r="6.5" transform="translate(110 2870)" fill="#5e57a7"/>
    </g>
    <g transform="translate(264 -2804)">
      <circle id="Ellipse_6-36" data-name="Ellipse 6" cx="6.5" cy="6.5" r="6.5" transform="translate(110 2870)" fill="#5e57a7"/>
    </g>
    <g transform="translate(-110 -2771)">
      <circle id="Ellipse_6-37" data-name="Ellipse 6" cx="6.5" cy="6.5" r="6.5" transform="translate(110 2870)" fill="#5e57a7"/>
    </g>
    <g transform="translate(-76 -2771)">
      <circle id="Ellipse_6-38" data-name="Ellipse 6" cx="6.5" cy="6.5" r="6.5" transform="translate(110 2870)" fill="#5e57a7"/>
    </g>
    <g transform="translate(-42 -2771)">
      <circle id="Ellipse_6-39" data-name="Ellipse 6" cx="6.5" cy="6.5" r="6.5" transform="translate(110 2870)" fill="#5e57a7"/>
    </g>
    <g transform="translate(-8 -2771)">
      <circle id="Ellipse_6-40" data-name="Ellipse 6" cx="6.5" cy="6.5" r="6.5" transform="translate(110 2870)" fill="#5e57a7"/>
    </g>
    <g transform="translate(26 -2771)">
      <circle id="Ellipse_6-41" data-name="Ellipse 6" cx="6.5" cy="6.5" r="6.5" transform="translate(110 2870)" fill="#5e57a7"/>
    </g>
    <g transform="translate(60 -2771)">
      <circle id="Ellipse_6-42" data-name="Ellipse 6" cx="6.5" cy="6.5" r="6.5" transform="translate(110 2870)" fill="#5e57a7"/>
    </g>
    <g transform="translate(94 -2771)">
      <circle id="Ellipse_6-43" data-name="Ellipse 6" cx="6.5" cy="6.5" r="6.5" transform="translate(110 2870)" fill="#5e57a7"/>
    </g>
    <g transform="translate(128 -2771)">
      <circle id="Ellipse_6-44" data-name="Ellipse 6" cx="6.5" cy="6.5" r="6.5" transform="translate(110 2870)" fill="#5e57a7"/>
    </g>
    <g transform="translate(162 -2771)">
      <circle id="Ellipse_6-45" data-name="Ellipse 6" cx="6.5" cy="6.5" r="6.5" transform="translate(110 2870)" fill="#5e57a7"/>
    </g>
    <g transform="translate(196 -2771)">
      <circle id="Ellipse_6-46" data-name="Ellipse 6" cx="6.5" cy="6.5" r="6.5" transform="translate(110 2870)" fill="#5e57a7"/>
    </g>
    <g transform="translate(230 -2771)">
      <circle id="Ellipse_6-47" data-name="Ellipse 6" cx="6.5" cy="6.5" r="6.5" transform="translate(110 2870)" fill="#5e57a7"/>
    </g>
    <g transform="translate(264 -2771)">
      <circle id="Ellipse_6-48" data-name="Ellipse 6" cx="6.5" cy="6.5" r="6.5" transform="translate(110 2870)" fill="#5e57a7"/>
    </g>
    <g transform="translate(-110 -2738)">
      <circle id="Ellipse_6-49" data-name="Ellipse 6" cx="6.5" cy="6.5" r="6.5" transform="translate(110 2870)" fill="#5e57a7"/>
    </g>
    <g transform="translate(-76 -2738)">
      <circle id="Ellipse_6-50" data-name="Ellipse 6" cx="6.5" cy="6.5" r="6.5" transform="translate(110 2870)" fill="#5e57a7"/>
    </g>
    <g transform="translate(-42 -2738)">
      <circle id="Ellipse_6-51" data-name="Ellipse 6" cx="6.5" cy="6.5" r="6.5" transform="translate(110 2870)" fill="#5e57a7"/>
    </g>
    <g transform="translate(-8 -2738)">
      <circle id="Ellipse_6-52" data-name="Ellipse 6" cx="6.5" cy="6.5" r="6.5" transform="translate(110 2870)" fill="#5e57a7"/>
    </g>
    <g transform="translate(26 -2738)">
      <circle id="Ellipse_6-53" data-name="Ellipse 6" cx="6.5" cy="6.5" r="6.5" transform="translate(110 2870)" fill="#5e57a7"/>
    </g>
    <g transform="translate(60 -2738)">
      <circle id="Ellipse_6-54" data-name="Ellipse 6" cx="6.5" cy="6.5" r="6.5" transform="translate(110 2870)" fill="#5e57a7"/>
    </g>
    <g transform="translate(94 -2738)">
      <circle id="Ellipse_6-55" data-name="Ellipse 6" cx="6.5" cy="6.5" r="6.5" transform="translate(110 2870)" fill="#5e57a7"/>
    </g>
    <g transform="translate(128 -2738)">
      <circle id="Ellipse_6-56" data-name="Ellipse 6" cx="6.5" cy="6.5" r="6.5" transform="translate(110 2870)" fill="#5e57a7"/>
    </g>
    <g transform="translate(162 -2738)">
      <circle id="Ellipse_6-57" data-name="Ellipse 6" cx="6.5" cy="6.5" r="6.5" transform="translate(110 2870)" fill="#5e57a7"/>
    </g>
    <g transform="translate(196 -2738)">
      <circle id="Ellipse_6-58" data-name="Ellipse 6" cx="6.5" cy="6.5" r="6.5" transform="translate(110 2870)" fill="#5e57a7"/>
    </g>
    <g transform="translate(230 -2738)">
      <circle id="Ellipse_6-59" data-name="Ellipse 6" cx="6.5" cy="6.5" r="6.5" transform="translate(110 2870)" fill="#5e57a7"/>
    </g>
    <g transform="translate(264 -2738)">
      <circle id="Ellipse_6-60" data-name="Ellipse 6" cx="6.5" cy="6.5" r="6.5" transform="translate(110 2870)" fill="#5e57a7"/>
    </g>
    <g transform="translate(-110 -2705)">
      <circle id="Ellipse_6-61" data-name="Ellipse 6" cx="6.5" cy="6.5" r="6.5" transform="translate(110 2870)" fill="#5e57a7"/>
    </g>
    <g transform="translate(-76 -2705)">
      <circle id="Ellipse_6-62" data-name="Ellipse 6" cx="6.5" cy="6.5" r="6.5" transform="translate(110 2870)" fill="#5e57a7"/>
    </g>
    <g transform="translate(-42 -2705)">
      <circle id="Ellipse_6-63" data-name="Ellipse 6" cx="6.5" cy="6.5" r="6.5" transform="translate(110 2870)" fill="#5e57a7"/>
    </g>
    <g transform="translate(-8 -2705)">
      <circle id="Ellipse_6-64" data-name="Ellipse 6" cx="6.5" cy="6.5" r="6.5" transform="translate(110 2870)" fill="#5e57a7"/>
    </g>
    <g transform="translate(26 -2705)">
      <circle id="Ellipse_6-65" data-name="Ellipse 6" cx="6.5" cy="6.5" r="6.5" transform="translate(110 2870)" fill="#5e57a7"/>
    </g>
    <g transform="translate(60 -2705)">
      <circle id="Ellipse_6-66" data-name="Ellipse 6" cx="6.5" cy="6.5" r="6.5" transform="translate(110 2870)" fill="#5e57a7"/>
    </g>
    <g transform="translate(94 -2705)">
      <circle id="Ellipse_6-67" data-name="Ellipse 6" cx="6.5" cy="6.5" r="6.5" transform="translate(110 2870)" fill="#5e57a7"/>
    </g>
    <g transform="translate(128 -2705)">
      <circle id="Ellipse_6-68" data-name="Ellipse 6" cx="6.5" cy="6.5" r="6.5" transform="translate(110 2870)" fill="#5e57a7"/>
    </g>
    <g transform="translate(162 -2705)">
      <circle id="Ellipse_6-69" data-name="Ellipse 6" cx="6.5" cy="6.5" r="6.5" transform="translate(110 2870)" fill="#5e57a7"/>
    </g>
    <g transform="translate(196 -2705)">
      <circle id="Ellipse_6-70" data-name="Ellipse 6" cx="6.5" cy="6.5" r="6.5" transform="translate(110 2870)" fill="#5e57a7"/>
    </g>
    <g transform="translate(230 -2705)">
      <circle id="Ellipse_6-71" data-name="Ellipse 6" cx="6.5" cy="6.5" r="6.5" transform="translate(110 2870)" fill="#5e57a7"/>
    </g>
    <g transform="translate(264 -2705)">
      <circle id="Ellipse_6-72" data-name="Ellipse 6" cx="6.5" cy="6.5" r="6.5" transform="translate(110 2870)" fill="#5e57a7"/>
    </g>
    <g transform="translate(-110 -2672)">
      <circle id="Ellipse_6-73" data-name="Ellipse 6" cx="6.5" cy="6.5" r="6.5" transform="translate(110 2870)" fill="#5e57a7"/>
    </g>
    <g transform="translate(-76 -2672)">
      <circle id="Ellipse_6-74" data-name="Ellipse 6" cx="6.5" cy="6.5" r="6.5" transform="translate(110 2870)" fill="#5e57a7"/>
    </g>
    <g transform="translate(-42 -2672)">
      <circle id="Ellipse_6-75" data-name="Ellipse 6" cx="6.5" cy="6.5" r="6.5" transform="translate(110 2870)" fill="#5e57a7"/>
    </g>
    <g transform="translate(-8 -2672)">
      <circle id="Ellipse_6-76" data-name="Ellipse 6" cx="6.5" cy="6.5" r="6.5" transform="translate(110 2870)" fill="#5e57a7"/>
    </g>
    <g transform="translate(26 -2672)">
      <circle id="Ellipse_6-77" data-name="Ellipse 6" cx="6.5" cy="6.5" r="6.5" transform="translate(110 2870)" fill="#5e57a7"/>
    </g>
    <g transform="translate(60 -2672)">
      <circle id="Ellipse_6-78" data-name="Ellipse 6" cx="6.5" cy="6.5" r="6.5" transform="translate(110 2870)" fill="#5e57a7"/>
    </g>
    <g transform="translate(94 -2672)">
      <circle id="Ellipse_6-79" data-name="Ellipse 6" cx="6.5" cy="6.5" r="6.5" transform="translate(110 2870)" fill="#5e57a7"/>
    </g>
    <g transform="translate(128 -2672)">
      <circle id="Ellipse_6-80" data-name="Ellipse 6" cx="6.5" cy="6.5" r="6.5" transform="translate(110 2870)" fill="#5e57a7"/>
    </g>
    <g transform="translate(162 -2672)">
      <circle id="Ellipse_6-81" data-name="Ellipse 6" cx="6.5" cy="6.5" r="6.5" transform="translate(110 2870)" fill="#5e57a7"/>
    </g>
    <g transform="translate(196 -2672)">
      <circle id="Ellipse_6-82" data-name="Ellipse 6" cx="6.5" cy="6.5" r="6.5" transform="translate(110 2870)" fill="#5e57a7"/>
    </g>
    <g transform="translate(230 -2672)">
      <circle id="Ellipse_6-83" data-name="Ellipse 6" cx="6.5" cy="6.5" r="6.5" transform="translate(110 2870)" fill="#5e57a7"/>
    </g>
    <g transform="translate(264 -2672)">
      <circle id="Ellipse_6-84" data-name="Ellipse 6" cx="6.5" cy="6.5" r="6.5" transform="translate(110 2870)" fill="#5e57a7"/>
    </g>
    <g transform="translate(-110 -2639)">
      <circle id="Ellipse_6-85" data-name="Ellipse 6" cx="6.5" cy="6.5" r="6.5" transform="translate(110 2870)" fill="#5e57a7"/>
    </g>
    <g transform="translate(-76 -2639)">
      <circle id="Ellipse_6-86" data-name="Ellipse 6" cx="6.5" cy="6.5" r="6.5" transform="translate(110 2870)" fill="#5e57a7"/>
    </g>
    <g transform="translate(-42 -2639)">
      <circle id="Ellipse_6-87" data-name="Ellipse 6" cx="6.5" cy="6.5" r="6.5" transform="translate(110 2870)" fill="#5e57a7"/>
    </g>
    <g transform="translate(-8 -2639)">
      <circle id="Ellipse_6-88" data-name="Ellipse 6" cx="6.5" cy="6.5" r="6.5" transform="translate(110 2870)" fill="#5e57a7"/>
    </g>
    <g transform="translate(26 -2639)">
      <circle id="Ellipse_6-89" data-name="Ellipse 6" cx="6.5" cy="6.5" r="6.5" transform="translate(110 2870)" fill="#5e57a7"/>
    </g>
    <g transform="translate(60 -2639)">
      <circle id="Ellipse_6-90" data-name="Ellipse 6" cx="6.5" cy="6.5" r="6.5" transform="translate(110 2870)" fill="#5e57a7"/>
    </g>
    <g transform="translate(94 -2639)">
      <circle id="Ellipse_6-91" data-name="Ellipse 6" cx="6.5" cy="6.5" r="6.5" transform="translate(110 2870)" fill="#5e57a7"/>
    </g>
    <g transform="translate(128 -2639)">
      <circle id="Ellipse_6-92" data-name="Ellipse 6" cx="6.5" cy="6.5" r="6.5" transform="translate(110 2870)" fill="#5e57a7"/>
    </g>
    <g transform="translate(162 -2639)">
      <circle id="Ellipse_6-93" data-name="Ellipse 6" cx="6.5" cy="6.5" r="6.5" transform="translate(110 2870)" fill="#5e57a7"/>
    </g>
    <g transform="translate(196 -2639)">
      <circle id="Ellipse_6-94" data-name="Ellipse 6" cx="6.5" cy="6.5" r="6.5" transform="translate(110 2870)" fill="#5e57a7"/>
    </g>
    <g transform="translate(230 -2639)">
      <circle id="Ellipse_6-95" data-name="Ellipse 6" cx="6.5" cy="6.5" r="6.5" transform="translate(110 2870)" fill="#5e57a7"/>
    </g>
    <g transform="translate(264 -2639)">
      <circle id="Ellipse_6-96" data-name="Ellipse 6" cx="6.5" cy="6.5" r="6.5" transform="translate(110 2870)" fill="#5e57a7"/>
    </g>
    <g transform="translate(-110 -2606)">
      <circle id="Ellipse_6-97" data-name="Ellipse 6" cx="6.5" cy="6.5" r="6.5" transform="translate(110 2870)" fill="#5e57a7"/>
    </g>
    <g transform="translate(-76 -2606)">
      <circle id="Ellipse_6-98" data-name="Ellipse 6" cx="6.5" cy="6.5" r="6.5" transform="translate(110 2870)" fill="#5e57a7"/>
    </g>
    <g transform="translate(-42 -2606)">
      <circle id="Ellipse_6-99" data-name="Ellipse 6" cx="6.5" cy="6.5" r="6.5" transform="translate(110 2870)" fill="#5e57a7"/>
    </g>
    <g transform="translate(-8 -2606)">
      <circle id="Ellipse_6-100" data-name="Ellipse 6" cx="6.5" cy="6.5" r="6.5" transform="translate(110 2870)" fill="#5e57a7"/>
    </g>
    <g transform="translate(26 -2606)">
      <circle id="Ellipse_6-101" data-name="Ellipse 6" cx="6.5" cy="6.5" r="6.5" transform="translate(110 2870)" fill="#5e57a7"/>
    </g>
    <g transform="translate(60 -2606)">
      <circle id="Ellipse_6-102" data-name="Ellipse 6" cx="6.5" cy="6.5" r="6.5" transform="translate(110 2870)" fill="#5e57a7"/>
    </g>
    <g transform="translate(94 -2606)">
      <circle id="Ellipse_6-103" data-name="Ellipse 6" cx="6.5" cy="6.5" r="6.5" transform="translate(110 2870)" fill="#5e57a7"/>
    </g>
    <g transform="translate(128 -2606)">
      <circle id="Ellipse_6-104" data-name="Ellipse 6" cx="6.5" cy="6.5" r="6.5" transform="translate(110 2870)" fill="#5e57a7"/>
    </g>
    <g transform="translate(162 -2606)">
      <circle id="Ellipse_6-105" data-name="Ellipse 6" cx="6.5" cy="6.5" r="6.5" transform="translate(110 2870)" fill="#5e57a7"/>
    </g>
    <g transform="translate(196 -2606)">
      <circle id="Ellipse_6-106" data-name="Ellipse 6" cx="6.5" cy="6.5" r="6.5" transform="translate(110 2870)" fill="#5e57a7"/>
    </g>
    <g transform="translate(230 -2606)">
      <circle id="Ellipse_6-107" data-name="Ellipse 6" cx="6.5" cy="6.5" r="6.5" transform="translate(110 2870)" fill="#5e57a7"/>
    </g>
    <g transform="translate(264 -2606)">
      <circle id="Ellipse_6-108" data-name="Ellipse 6" cx="6.5" cy="6.5" r="6.5" transform="translate(110 2870)" fill="#5e57a7"/>
    </g>
    <g transform="translate(-110 -2573)">
      <circle id="Ellipse_6-109" data-name="Ellipse 6" cx="6.5" cy="6.5" r="6.5" transform="translate(110 2870)" fill="#5e57a7"/>
    </g>
    <g transform="translate(-76 -2573)">
      <circle id="Ellipse_6-110" data-name="Ellipse 6" cx="6.5" cy="6.5" r="6.5" transform="translate(110 2870)" fill="#5e57a7"/>
    </g>
    <g transform="translate(-42 -2573)">
      <circle id="Ellipse_6-111" data-name="Ellipse 6" cx="6.5" cy="6.5" r="6.5" transform="translate(110 2870)" fill="#5e57a7"/>
    </g>
    <g transform="translate(-8 -2573)">
      <circle id="Ellipse_6-112" data-name="Ellipse 6" cx="6.5" cy="6.5" r="6.5" transform="translate(110 2870)" fill="#5e57a7"/>
    </g>
    <g transform="translate(26 -2573)">
      <circle id="Ellipse_6-113" data-name="Ellipse 6" cx="6.5" cy="6.5" r="6.5" transform="translate(110 2870)" fill="#5e57a7"/>
    </g>
    <g transform="translate(60 -2573)">
      <circle id="Ellipse_6-114" data-name="Ellipse 6" cx="6.5" cy="6.5" r="6.5" transform="translate(110 2870)" fill="#5e57a7"/>
    </g>
    <g transform="translate(94 -2573)">
      <circle id="Ellipse_6-115" data-name="Ellipse 6" cx="6.5" cy="6.5" r="6.5" transform="translate(110 2870)" fill="#5e57a7"/>
    </g>
    <g transform="translate(128 -2573)">
      <circle id="Ellipse_6-116" data-name="Ellipse 6" cx="6.5" cy="6.5" r="6.5" transform="translate(110 2870)" fill="#5e57a7"/>
    </g>
    <g transform="translate(162 -2573)">
      <circle id="Ellipse_6-117" data-name="Ellipse 6" cx="6.5" cy="6.5" r="6.5" transform="translate(110 2870)" fill="#5e57a7"/>
    </g>
    <g transform="translate(196 -2573)">
      <circle id="Ellipse_6-118" data-name="Ellipse 6" cx="6.5" cy="6.5" r="6.5" transform="translate(110 2870)" fill="#5e57a7"/>
    </g>
    <g transform="translate(230 -2573)">
      <circle id="Ellipse_6-119" data-name="Ellipse 6" cx="6.5" cy="6.5" r="6.5" transform="translate(110 2870)" fill="#5e57a7"/>
    </g>
    <g transform="translate(264 -2573)">
      <circle id="Ellipse_6-120" data-name="Ellipse 6" cx="6.5" cy="6.5" r="6.5" transform="translate(110 2870)" fill="#5e57a7"/>
    </g>
    <g transform="translate(-110 -2540)">
      <circle id="Ellipse_6-121" data-name="Ellipse 6" cx="6.5" cy="6.5" r="6.5" transform="translate(110 2870)" fill="#5e57a7"/>
    </g>
    <g transform="translate(-76 -2540)">
      <circle id="Ellipse_6-122" data-name="Ellipse 6" cx="6.5" cy="6.5" r="6.5" transform="translate(110 2870)" fill="#5e57a7"/>
    </g>
    <g transform="translate(-42 -2540)">
      <circle id="Ellipse_6-123" data-name="Ellipse 6" cx="6.5" cy="6.5" r="6.5" transform="translate(110 2870)" fill="#5e57a7"/>
    </g>
    <g transform="translate(-8 -2540)">
      <circle id="Ellipse_6-124" data-name="Ellipse 6" cx="6.5" cy="6.5" r="6.5" transform="translate(110 2870)" fill="#5e57a7"/>
    </g>
    <g transform="translate(26 -2540)">
      <circle id="Ellipse_6-125" data-name="Ellipse 6" cx="6.5" cy="6.5" r="6.5" transform="translate(110 2870)" fill="#5e57a7"/>
    </g>
    <g transform="translate(60 -2540)">
      <circle id="Ellipse_6-126" data-name="Ellipse 6" cx="6.5" cy="6.5" r="6.5" transform="translate(110 2870)" fill="#5e57a7"/>
    </g>
    <g transform="translate(94 -2540)">
      <circle id="Ellipse_6-127" data-name="Ellipse 6" cx="6.5" cy="6.5" r="6.5" transform="translate(110 2870)" fill="#5e57a7"/>
    </g>
    <g transform="translate(128 -2540)">
      <circle id="Ellipse_6-128" data-name="Ellipse 6" cx="6.5" cy="6.5" r="6.5" transform="translate(110 2870)" fill="#5e57a7"/>
    </g>
    <g transform="translate(162 -2540)">
      <circle id="Ellipse_6-129" data-name="Ellipse 6" cx="6.5" cy="6.5" r="6.5" transform="translate(110 2870)" fill="#5e57a7"/>
    </g>
    <g transform="translate(196 -2540)">
      <circle id="Ellipse_6-130" data-name="Ellipse 6" cx="6.5" cy="6.5" r="6.5" transform="translate(110 2870)" fill="#5e57a7"/>
    </g>
    <g transform="translate(230 -2540)">
      <circle id="Ellipse_6-131" data-name="Ellipse 6" cx="6.5" cy="6.5" r="6.5" transform="translate(110 2870)" fill="#5e57a7"/>
    </g>
    <g transform="translate(264 -2540)">
      <circle id="Ellipse_6-132" data-name="Ellipse 6" cx="6.5" cy="6.5" r="6.5" transform="translate(110 2870)" fill="#5e57a7"/>
    </g>
    <g transform="translate(-110 -2507)">
      <circle id="Ellipse_6-133" data-name="Ellipse 6" cx="6.5" cy="6.5" r="6.5" transform="translate(110 2870)" fill="#5e57a7"/>
    </g>
    <g transform="translate(-76 -2507)">
      <circle id="Ellipse_6-134" data-name="Ellipse 6" cx="6.5" cy="6.5" r="6.5" transform="translate(110 2870)" fill="#5e57a7"/>
    </g>
    <g transform="translate(-42 -2507)">
      <circle id="Ellipse_6-135" data-name="Ellipse 6" cx="6.5" cy="6.5" r="6.5" transform="translate(110 2870)" fill="#5e57a7"/>
    </g>
    <g transform="translate(-8 -2507)">
      <circle id="Ellipse_6-136" data-name="Ellipse 6" cx="6.5" cy="6.5" r="6.5" transform="translate(110 2870)" fill="#5e57a7"/>
    </g>
    <g transform="translate(26 -2507)">
      <circle id="Ellipse_6-137" data-name="Ellipse 6" cx="6.5" cy="6.5" r="6.5" transform="translate(110 2870)" fill="#5e57a7"/>
    </g>
    <g transform="translate(60 -2507)">
      <circle id="Ellipse_6-138" data-name="Ellipse 6" cx="6.5" cy="6.5" r="6.5" transform="translate(110 2870)" fill="#5e57a7"/>
    </g>
    <g transform="translate(94 -2507)">
      <circle id="Ellipse_6-139" data-name="Ellipse 6" cx="6.5" cy="6.5" r="6.5" transform="translate(110 2870)" fill="#5e57a7"/>
    </g>
    <g transform="translate(128 -2507)">
      <circle id="Ellipse_6-140" data-name="Ellipse 6" cx="6.5" cy="6.5" r="6.5" transform="translate(110 2870)" fill="#5e57a7"/>
    </g>
    <g transform="translate(162 -2507)">
      <circle id="Ellipse_6-141" data-name="Ellipse 6" cx="6.5" cy="6.5" r="6.5" transform="translate(110 2870)" fill="#5e57a7"/>
    </g>
    <g transform="translate(196 -2507)">
      <circle id="Ellipse_6-142" data-name="Ellipse 6" cx="6.5" cy="6.5" r="6.5" transform="translate(110 2870)" fill="#5e57a7"/>
    </g>
    <g transform="translate(230 -2507)">
      <circle id="Ellipse_6-143" data-name="Ellipse 6" cx="6.5" cy="6.5" r="6.5" transform="translate(110 2870)" fill="#5e57a7"/>
    </g>
    <g transform="translate(264 -2507)">
      <circle id="Ellipse_6-144" data-name="Ellipse 6" cx="6.5" cy="6.5" r="6.5" transform="translate(110 2870)" fill="#5e57a7"/>
    </g>
    <g transform="translate(-110 -2474)">
      <circle id="Ellipse_6-145" data-name="Ellipse 6" cx="6.5" cy="6.5" r="6.5" transform="translate(110 2870)" fill="#5e57a7"/>
    </g>
    <g transform="translate(-76 -2474)">
      <circle id="Ellipse_6-146" data-name="Ellipse 6" cx="6.5" cy="6.5" r="6.5" transform="translate(110 2870)" fill="#5e57a7"/>
    </g>
    <g transform="translate(-42 -2474)">
      <circle id="Ellipse_6-147" data-name="Ellipse 6" cx="6.5" cy="6.5" r="6.5" transform="translate(110 2870)" fill="#5e57a7"/>
    </g>
    <g transform="translate(-8 -2474)">
      <circle id="Ellipse_6-148" data-name="Ellipse 6" cx="6.5" cy="6.5" r="6.5" transform="translate(110 2870)" fill="#5e57a7"/>
    </g>
    <g transform="translate(26 -2474)">
      <circle id="Ellipse_6-149" data-name="Ellipse 6" cx="6.5" cy="6.5" r="6.5" transform="translate(110 2870)" fill="#5e57a7"/>
    </g>
    <g transform="translate(60 -2474)">
      <circle id="Ellipse_6-150" data-name="Ellipse 6" cx="6.5" cy="6.5" r="6.5" transform="translate(110 2870)" fill="#5e57a7"/>
    </g>
    <g transform="translate(94 -2474)">
      <circle id="Ellipse_6-151" data-name="Ellipse 6" cx="6.5" cy="6.5" r="6.5" transform="translate(110 2870)" fill="#5e57a7"/>
    </g>
    <g transform="translate(128 -2474)">
      <circle id="Ellipse_6-152" data-name="Ellipse 6" cx="6.5" cy="6.5" r="6.5" transform="translate(110 2870)" fill="#5e57a7"/>
    </g>
    <g transform="translate(162 -2474)">
      <circle id="Ellipse_6-153" data-name="Ellipse 6" cx="6.5" cy="6.5" r="6.5" transform="translate(110 2870)" fill="#5e57a7"/>
    </g>
    <g transform="translate(196 -2474)">
      <circle id="Ellipse_6-154" data-name="Ellipse 6" cx="6.5" cy="6.5" r="6.5" transform="translate(110 2870)" fill="#5e57a7"/>
    </g>
    <g transform="translate(230 -2474)">
      <circle id="Ellipse_6-155" data-name="Ellipse 6" cx="6.5" cy="6.5" r="6.5" transform="translate(110 2870)" fill="#5e57a7"/>
    </g>
    <g transform="translate(264 -2474)">
      <circle id="Ellipse_6-156" data-name="Ellipse 6" cx="6.5" cy="6.5" r="6.5" transform="translate(110 2870)" fill="#5e57a7"/>
    </g>
    <g transform="translate(-110 -2441)">
      <circle id="Ellipse_6-157" data-name="Ellipse 6" cx="6.5" cy="6.5" r="6.5" transform="translate(110 2870)" fill="#5e57a7"/>
    </g>
    <g transform="translate(-76 -2441)">
      <circle id="Ellipse_6-158" data-name="Ellipse 6" cx="6.5" cy="6.5" r="6.5" transform="translate(110 2870)" fill="#5e57a7"/>
    </g>
    <g transform="translate(-42 -2441)">
      <circle id="Ellipse_6-159" data-name="Ellipse 6" cx="6.5" cy="6.5" r="6.5" transform="translate(110 2870)" fill="#5e57a7"/>
    </g>
    <g transform="translate(-8 -2441)">
      <circle id="Ellipse_6-160" data-name="Ellipse 6" cx="6.5" cy="6.5" r="6.5" transform="translate(110 2870)" fill="#5e57a7"/>
    </g>
    <g transform="translate(26 -2441)">
      <circle id="Ellipse_6-161" data-name="Ellipse 6" cx="6.5" cy="6.5" r="6.5" transform="translate(110 2870)" fill="#5e57a7"/>
    </g>
    <g transform="translate(60 -2441)">
      <circle id="Ellipse_6-162" data-name="Ellipse 6" cx="6.5" cy="6.5" r="6.5" transform="translate(110 2870)" fill="#5e57a7"/>
    </g>
    <g transform="translate(94 -2441)">
      <circle id="Ellipse_6-163" data-name="Ellipse 6" cx="6.5" cy="6.5" r="6.5" transform="translate(110 2870)" fill="#5e57a7"/>
    </g>
    <g transform="translate(128 -2441)">
      <circle id="Ellipse_6-164" data-name="Ellipse 6" cx="6.5" cy="6.5" r="6.5" transform="translate(110 2870)" fill="#5e57a7"/>
    </g>
    <g transform="translate(162 -2441)">
      <circle id="Ellipse_6-165" data-name="Ellipse 6" cx="6.5" cy="6.5" r="6.5" transform="translate(110 2870)" fill="#5e57a7"/>
    </g>
    <g transform="translate(196 -2441)">
      <circle id="Ellipse_6-166" data-name="Ellipse 6" cx="6.5" cy="6.5" r="6.5" transform="translate(110 2870)" fill="#5e57a7"/>
    </g>
    <g transform="translate(230 -2441)">
      <circle id="Ellipse_6-167" data-name="Ellipse 6" cx="6.5" cy="6.5" r="6.5" transform="translate(110 2870)" fill="#5e57a7"/>
    </g>
    <g transform="translate(264 -2441)">
      <circle id="Ellipse_6-168" data-name="Ellipse 6" cx="6.5" cy="6.5" r="6.5" transform="translate(110 2870)" fill="#5e57a7"/>
    </g>
  </g>
</svg>
