<svg xmlns="http://www.w3.org/2000/svg" width="68.999" height="69" viewBox="0 0 68.999 69">
  <path id="team" d="M69,28.935H66.5L62.771,30.9a5.533,5.533,0,0,0-1.326-.546l-4.688-1.173v-.533a7.815,7.815,0,0,0,3.34-6.387V20.312a8,8,0,0,0-7.551-8.067c-.211-.005-.42,0-.629.012l1.216-2.846L47.239,3.52,43.765,5.781A18.824,18.824,0,0,0,39.6,4.053L38.741,0H30.259L29.4,4.054a18.8,18.8,0,0,0-4.166,1.728L21.762,3.521,15.873,9.41l1.195,2.848c-.046,0-.089-.01-.135-.011A7.793,7.793,0,0,0,8.9,20.032v2.226a7.812,7.812,0,0,0,3.339,6.386v.534l-3.058.765L3.64,26.709H0V49.77l10.949,3.649h2.132l.266-.932L16.7,54.5a3.465,3.465,0,0,0,3.341,3.357A3.465,3.465,0,0,0,23.383,61.2a3.465,3.465,0,0,0,3.339,3.339,3.461,3.461,0,0,0,5.412,2.748l.986.871A3.389,3.389,0,0,0,35.359,69h.206a3.388,3.388,0,0,0,3.382-3.343,3.385,3.385,0,0,0,3.339-3.339,3.385,3.385,0,0,0,3.339-3.342,3.422,3.422,0,0,0,3.343-3.415,3.258,3.258,0,0,0-.017-.334L69,45.2ZM57.87,20.312v1.945a5.586,5.586,0,0,1-2.785,4.816l-.556.322,0,3.522,5.56,1.389L47.854,38.747v-3a5.537,5.537,0,0,0-1.594-3.878l3.82-.954V27.392l-.555-.321a5.58,5.58,0,0,1-2.783-4.813V20.032a5.564,5.564,0,0,1,5.737-5.561,5.754,5.754,0,0,1,5.392,5.842ZM36.177,37.872l-5.038-1.61a13.743,13.743,0,0,0-7.131-.325l-.638.141v-.329A3.336,3.336,0,0,1,25.9,32.51l6.375-1.593V27.392l-.555-.321a5.58,5.58,0,0,1-2.783-4.813V20.032a5.564,5.564,0,0,1,5.737-5.561,5.754,5.754,0,0,1,5.392,5.842v1.945a5.586,5.586,0,0,1-2.785,4.816l-.556.322,0,3.522L43.1,32.51a3.336,3.336,0,0,1,2.528,3.24v4.17l-.275.145h-.682l-6.842-1.955a7.015,7.015,0,0,0-1.652-.236ZM23.62,16.656a12.233,12.233,0,0,1,21.713-.09,7.74,7.74,0,0,0-.818,3.465v2.226a7.812,7.812,0,0,0,3.339,6.386v.534L43.4,30.292,38.95,29.177v-.533a7.815,7.815,0,0,0,3.34-6.387V20.312a8,8,0,0,0-7.551-8.067,7.792,7.792,0,0,0-8.029,7.787v2.226a7.812,7.812,0,0,0,3.339,6.386v.534L25.6,30.292l-4.453-1.115v-.533a7.815,7.815,0,0,0,3.34-6.387V20.312a8.2,8.2,0,0,0-.863-3.656ZM18.5,9.926,22.057,6.37l3.129,2.037.6-.367a16.607,16.607,0,0,1,4.819-2l.685-.164.774-3.651h4.873l.772,3.65.685.164a16.623,16.623,0,0,1,4.819,2l.6.367,3.129-2.037,3.551,3.552L49.23,12.877a7.779,7.779,0,0,0-2.349,1.562c-.046.045-.085.092-.129.138a14.453,14.453,0,0,0-24.546.067A7.85,7.85,0,0,0,19.75,12.9ZM14.467,30.917V27.392l-.555-.321a5.58,5.58,0,0,1-2.783-4.813V20.032a5.564,5.564,0,0,1,5.737-5.561,5.754,5.754,0,0,1,5.392,5.842v1.945a5.586,5.586,0,0,1-2.785,4.816l-.556.322,0,3.522,3.819.954a5.537,5.537,0,0,0-1.594,3.878v.824l-3.471.772.09-.315.042-2.057-5.869-3.424ZM2.226,28.935h.811l8,4.668L7,49.757,2.226,48.165Zm9.084,22.258-2.19-.73,3.923-15.692,2.538,1.48v.318L11.4,51.193Zm7.61,3.2a1.256,1.256,0,0,1,.365-.882l1.956-1.956a1.248,1.248,0,0,1,1.765,1.765l-1.956,1.956a1.248,1.248,0,0,1-2.13-.882Zm3.339,3.339a1.256,1.256,0,0,1,.365-.882L24.579,54.9a1.248,1.248,0,0,1,1.765,1.765l-1.956,1.956a1.248,1.248,0,0,1-2.13-.882ZM25.6,61.074a1.256,1.256,0,0,1,.365-.882l1.956-1.956A1.248,1.248,0,0,1,29.683,60l-1.956,1.956a1.248,1.248,0,0,1-2.13-.882Zm4.586,4.586a1.248,1.248,0,0,1-.882-2.13l1.956-1.956a1.248,1.248,0,0,1,1.765,1.765L31.065,65.3A1.256,1.256,0,0,1,30.183,65.661Zm5.382,1.113h-.206a1.153,1.153,0,0,1-.767-.291l-.832-.734.836-.836a3.46,3.46,0,0,0,.7-1.034l1.012.842a1.161,1.161,0,0,1-.743,2.052Zm9.98-10.016h-.192a1.194,1.194,0,0,1-.766-.278L38.552,51.45l-1.426,1.711,5.861,4.883a1.162,1.162,0,0,1-.744,2.052H42a1.161,1.161,0,0,1-.742-.27L35.212,54.79,33.786,56.5l5.861,4.884a1.16,1.16,0,0,1-.743,2.051,1.838,1.838,0,0,1-1.171-.424l-2.484-2.07A3.462,3.462,0,0,0,32.26,59a3.465,3.465,0,0,0-3.339-3.339,3.465,3.465,0,0,0-3.339-3.339,3.465,3.465,0,0,0-5.916-2.334L17.71,51.941a3.43,3.43,0,0,0-.312.381L13.98,50.27l3-10.489,7.513-1.67a11.465,11.465,0,0,1,5.971.27l1.639.524-5.558,2.779a3.71,3.71,0,0,0-2.059,3.334v.22a3.727,3.727,0,0,0,5.646,3.2l4.144-2.485a2.3,2.3,0,0,1,2.669.257l9.4,8.462a1.2,1.2,0,0,1-.8,2.088Zm21.229-12.93L48.024,53.2c-.061-.065-.124-.126-.191-.186l-9.4-8.462a4.479,4.479,0,0,0-5.3-.513l-4.146,2.486a1.5,1.5,0,0,1-2.273-1.289v-.22a1.493,1.493,0,0,1,.83-1.343l6.208-3.1a4.837,4.837,0,0,1,3.469-.322l6.994,2,1.694.042,20.87-10.984Zm0,0" transform="translate(0 0)" fill="#5e57a7"/>
</svg>
