<svg xmlns="http://www.w3.org/2000/svg" width="66.998" height="67" viewBox="0 0 66.998 67">
  <g id="resume" transform="translate(-0.007)">
    <g id="Group_16" data-name="Group 16" transform="translate(0.007)">
      <g id="Group_15" data-name="Group 15" transform="translate(0)">
        <path id="Path_5" data-name="Path 5" d="M54.183,19.465a1.309,1.309,0,0,0,1.309-1.309V3.926A3.93,3.93,0,0,0,51.566,0H3.933A3.93,3.93,0,0,0,.007,3.926V63.074A3.93,3.93,0,0,0,3.933,67H51.566a3.93,3.93,0,0,0,3.926-3.926V53.434a1.309,1.309,0,1,0-2.617,0v9.641a1.31,1.31,0,0,1-1.309,1.309H3.933a1.31,1.31,0,0,1-1.309-1.309V3.926A1.31,1.31,0,0,1,3.933,2.617H51.566a1.31,1.31,0,0,1,1.309,1.309V18.157A1.309,1.309,0,0,0,54.183,19.465Z" transform="translate(-0.007)" fill="#5e57a7"/>
      </g>
    </g>
    <g id="Group_18" data-name="Group 18" transform="translate(15.71 7.066)">
      <g id="Group_17" data-name="Group 17">
        <path id="Path_6" data-name="Path 6" d="M132.046,54a12.033,12.033,0,0,0-8.26,20.79,1.294,1.294,0,0,0,.141.131,12.016,12.016,0,0,0,16.238,0,1.307,1.307,0,0,0,.141-.131A12.033,12.033,0,0,0,132.046,54Zm0,21.461a9.371,9.371,0,0,1-5.691-1.919,6.543,6.543,0,0,1,11.382,0A9.372,9.372,0,0,1,132.046,75.461Zm-2.094-9.945v-.851a2.094,2.094,0,0,1,4.188,0v.851a2.094,2.094,0,1,1-4.187,0Zm9.676,6.109a9.078,9.078,0,0,0-3.855-3.232,4.686,4.686,0,0,0,.984-2.877v-.851a4.711,4.711,0,1,0-9.422,0v.851a4.686,4.686,0,0,0,.984,2.877,9.078,9.078,0,0,0-3.856,3.232,9.422,9.422,0,1,1,15.164,0Z" transform="translate(-120.007 -54)" fill="#5e57a7"/>
      </g>
    </g>
    <g id="Group_20" data-name="Group 20" transform="translate(26.441 57.316)">
      <g id="Group_19" data-name="Group 19">
        <path id="Path_7" data-name="Path 7" d="M210.382,438h-7.066a1.309,1.309,0,0,0,0,2.617h7.066a1.309,1.309,0,0,0,0-2.617Z" transform="translate(-202.007 -438)" fill="#5e57a7"/>
      </g>
    </g>
    <g id="Group_22" data-name="Group 22" transform="translate(14.925 49.988)">
      <g id="Group_21" data-name="Group 21">
        <path id="Path_8" data-name="Path 8" d="M133.9,382H115.316a1.309,1.309,0,0,0,0,2.617H133.9a1.309,1.309,0,0,0,0-2.617Z" transform="translate(-114.007 -382)" fill="#5e57a7"/>
      </g>
    </g>
    <g id="Group_24" data-name="Group 24" transform="translate(14.925 42.66)">
      <g id="Group_23" data-name="Group 23">
        <path id="Path_9" data-name="Path 9" d="M133.9,326H115.316a1.309,1.309,0,0,0,0,2.617H133.9a1.309,1.309,0,0,0,0-2.617Z" transform="translate(-114.007 -326)" fill="#5e57a7"/>
      </g>
    </g>
    <g id="Group_26" data-name="Group 26" transform="translate(9.335 35.332)">
      <g id="Group_25" data-name="Group 25">
        <path id="Path_10" data-name="Path 10" d="M73.522,270.383a1.308,1.308,0,1,0,.384.925A1.319,1.319,0,0,0,73.522,270.383Z" transform="translate(-71.287 -270)" fill="#5e57a7"/>
      </g>
    </g>
    <g id="Group_28" data-name="Group 28" transform="translate(9.335 42.66)">
      <g id="Group_27" data-name="Group 27">
        <path id="Path_11" data-name="Path 11" d="M73.522,326.383a1.308,1.308,0,1,0,.384.925A1.321,1.321,0,0,0,73.522,326.383Z" transform="translate(-71.287 -326)" fill="#5e57a7"/>
      </g>
    </g>
    <g id="Group_30" data-name="Group 30" transform="translate(9.335 49.988)">
      <g id="Group_29" data-name="Group 29">
        <path id="Path_12" data-name="Path 12" d="M73.522,382.383a1.308,1.308,0,1,0,.384.925A1.321,1.321,0,0,0,73.522,382.383Z" transform="translate(-71.287 -382)" fill="#5e57a7"/>
      </g>
    </g>
    <g id="Group_32" data-name="Group 32" transform="translate(14.925 35.332)">
      <g id="Group_31" data-name="Group 31">
        <path id="Path_13" data-name="Path 13" d="M133.9,270H115.316a1.309,1.309,0,0,0,0,2.617H133.9a1.309,1.309,0,0,0,0-2.617Z" transform="translate(-114.007 -270)" fill="#5e57a7"/>
      </g>
    </g>
    <g id="Group_34" data-name="Group 34" transform="translate(38.948 16.315)">
      <g id="Group_33" data-name="Group 33">
        <path id="Path_14" data-name="Path 14" d="M322.9,125.414a5.5,5.5,0,0,0-7.508,2.012l-16.468,28.523a1.311,1.311,0,0,0-.167.509L297.6,166.84a1.309,1.309,0,0,0,2.076,1.2l8.412-6.2a1.306,1.306,0,0,0,.357-.4l16.467-28.523A5.5,5.5,0,0,0,322.9,125.414ZM300.53,164.158l.605-5.422,3.787,2.187Zm6.3-5.156-4.986-2.879,13.215-22.889,4.986,2.879Zm15.813-27.389-1.29,2.234-4.986-2.879,1.29-2.234a2.879,2.879,0,0,1,4.986,2.879Z" transform="translate(-297.589 -124.675)" fill="#5e57a7"/>
      </g>
    </g>
  </g>
</svg>
