<svg xmlns="http://www.w3.org/2000/svg" width="68.856" height="69.015" viewBox="0 0 68.856 69.015">
  <g id="customer-service" transform="translate(-0.572)">
    <g id="Group_2" data-name="Group 2" transform="translate(0.573 11.131)">
      <g id="Group_1" data-name="Group 1" transform="translate(0)">
        <path id="Path_1" data-name="Path 1" d="M56.508,128.979l-2.577-7.732a7.792,7.792,0,0,0-6-5.2l-7.439-1.354v-.577a11.2,11.2,0,0,0,3.318-2.947h2.247a3.344,3.344,0,0,0,3.339-3.339V94.471a14.471,14.471,0,0,0-28.942,0v7.792a4.46,4.46,0,0,0,3.55,4.36,11.152,11.152,0,0,0,5.355,7.491v.577l-7.44,1.354a7.791,7.791,0,0,0-6,5.2l-.445,1.337-3.791-3.791a1.115,1.115,0,0,1,0-1.575l4.4-4.4-8.253-8.253-4.969,4.969a7.792,7.792,0,0,0,0,11.019L17.906,135.6a7.788,7.788,0,0,0,10.985.033l5.422-4.968-1.691-1.688Zm-9.336-21.15a1.114,1.114,0,0,1-1.113,1.113h-.936a11.056,11.056,0,0,0,.726-2.319,4.409,4.409,0,0,0,1.324-.527Zm-1.113-3.649v-3.834a2.207,2.207,0,0,1,0,3.834Zm-22.263,0a2.207,2.207,0,0,1,0-3.834Zm0-7.483v1.271a4.415,4.415,0,0,0-1.113.461V94.471a12.245,12.245,0,1,1,24.489,0v3.958a4.375,4.375,0,0,0-1.113-.461V96.7H44.946a12.247,12.247,0,0,1-8.715-3.61l-1.3-1.3-1.3,1.3a12.247,12.247,0,0,1-8.715,3.61Zm2.226,7.792V98.881a14.432,14.432,0,0,0,8.905-3.956,14.426,14.426,0,0,0,8.905,3.956v5.608a8.838,8.838,0,0,1-1.2,4.453h-7.7v2.226H40.8a8.891,8.891,0,0,1-14.776-6.679Zm12.245,10.618v.052L34.927,118.5l-3.339-3.339v-.052a11.122,11.122,0,0,0,6.679,0ZM18.034,121.95a5.568,5.568,0,0,1,4.285-3.717L30.1,116.82l4.828,4.828,4.827-4.827,7.78,1.414a5.566,5.566,0,0,1,4.285,3.717l1.6,4.8H30.4l-4.336-4.336-4.818,4.358a1.137,1.137,0,0,1-1.574,0l-2.431-2.431ZM7.83,107.716l5.1,5.1-1.209,1.209-5.1-5.1Zm19.519,26.313a5.567,5.567,0,0,1-7.871,0L4.434,118.984a5.567,5.567,0,0,1,0-7.871l.612-.612,5.1,5.1-.04.04a3.345,3.345,0,0,0,0,4.723l7.982,7.982a3.322,3.322,0,0,0,2.362.978,3.278,3.278,0,0,0,2.321-.939l.083-.075,5.128,5.128Zm2.282-2.093-5.117-5.117,1.47-1.329,5.108,5.108Z" transform="translate(-0.58 -80)" fill="#5e57a7"/>
      </g>
    </g>
    <g id="Group_4" data-name="Group 4" transform="translate(47.165)">
      <g id="Group_3" data-name="Group 3">
        <path id="Path_2" data-name="Path 2" d="M354.352,0H338.767a3.344,3.344,0,0,0-3.339,3.339v8.905a3.344,3.344,0,0,0,3.339,3.339h2.973L340.59,22.3l10.742-6.713h3.02a3.344,3.344,0,0,0,3.339-3.339V3.339A3.344,3.344,0,0,0,354.352,0Zm1.113,12.245a1.115,1.115,0,0,1-1.113,1.113h-3.659l-7.07,4.418.758-4.418h-5.614a1.115,1.115,0,0,1-1.113-1.113V3.339a1.115,1.115,0,0,1,1.113-1.113h15.584a1.115,1.115,0,0,1,1.113,1.113Z" transform="translate(-335.428)" fill="#5e57a7"/>
      </g>
    </g>
    <g id="Group_6" data-name="Group 6" transform="translate(51.618 4.453)">
      <g id="Group_5" data-name="Group 5">
        <rect id="Rectangle_6" data-name="Rectangle 6" width="13.358" height="2.226" fill="#5e57a7"/>
      </g>
    </g>
    <g id="Group_8" data-name="Group 8" transform="translate(51.618 8.905)">
      <g id="Group_7" data-name="Group 7">
        <rect id="Rectangle_7" data-name="Rectangle 7" width="8.905" height="2.226" fill="#5e57a7"/>
      </g>
    </g>
    <g id="Group_10" data-name="Group 10" transform="translate(62.749 8.905)">
      <g id="Group_9" data-name="Group 9">
        <rect id="Rectangle_8" data-name="Rectangle 8" width="2.226" height="2.226" fill="#5e57a7"/>
      </g>
    </g>
    <g id="Group_12" data-name="Group 12" transform="translate(0.572 3.339)">
      <g id="Group_11" data-name="Group 11" transform="translate(0)">
        <path id="Path_3" data-name="Path 3" d="M34.92,24A31.148,31.148,0,0,0,4.59,48.094L2.481,44.578.572,45.723l3.913,6.52L11,48.33,9.859,46.421l-3.017,1.81A28.95,28.95,0,0,1,43.5,27.518l.659-2.126A31.148,31.148,0,0,0,34.92,24Z" transform="translate(-0.572 -24)" fill="#5e57a7"/>
      </g>
    </g>
    <g id="Group_14" data-name="Group 14" transform="translate(57.407 20.735)">
      <g id="Group_13" data-name="Group 13">
        <path id="Path_4" data-name="Path 4" d="M420.516,152.929,414,149.016l-3.912,6.521,1.909,1.145,1.948-3.247a28.967,28.967,0,0,1-4.906,27.576l1.729,1.4a31.172,31.172,0,0,0,5.334-29.539l3.272,1.962Z" transform="translate(-409.036 -149.016)" fill="#5e57a7"/>
      </g>
    </g>
  </g>
</svg>
