<svg xmlns="http://www.w3.org/2000/svg" width="87.747" height="58.879" viewBox="0 0 87.747 58.879">
  <path id="Path_2214" data-name="Path 2214" d="M8.575,49.447a17.148,17.148,0,0,0,6.86-5.145,36.674,36.674,0,0,0,5.431-8.861h-3.43A16.774,16.774,0,0,1,5.145,30.3,16.774,16.774,0,0,1,0,18.007,17.115,17.115,0,0,1,5.431,5.288Q10.861,0,17.435,0q9.718,0,14.434,5.859t4.716,15.291A47.271,47.271,0,0,1,31.3,42.159,42.233,42.233,0,0,1,17.149,58.879Zm51.162,0A17.149,17.149,0,0,0,66.6,44.3a36.674,36.674,0,0,0,5.431-8.861H68.6A16.774,16.774,0,0,1,56.307,30.3a16.774,16.774,0,0,1-5.145-12.29A17.115,17.115,0,0,1,56.593,5.288Q62.023,0,68.6,0q9.718,0,14.434,5.859t4.716,15.291A47.271,47.271,0,0,1,82.46,42.159,42.233,42.233,0,0,1,68.312,58.879Z" transform="translate(87.747 58.879) rotate(180)" fill="#6f8ba4" opacity="0.3"/>
</svg>
